<?xml version="1.0" encoding="utf-8"?>
<!-- Generator: Adobe Illustrator 15.0.2, SVG Export Plug-In  -->

<svg version="1.1"
    xmlns="http://www.w3.org/2000/svg" xmlns:xlink="http://www.w3.org/1999/xlink" xmlns:a="http://ns.adobe.com/AdobeSVGViewerExtensions/3.0/"
    x="0px" y="0px" width="145px" height="23px" viewBox="-3.569 -3.083 145 23"
    overflow="visible" enable-background="new -3.569 -3.083 145 23" xml:space="preserve">
    <style>
        .letter {
            fill: #E57A44;
        }
    </style>
    <defs>
    </defs>
    <path class="letter" d="M0,0.09h7.292c3.331,0,7.337,2.476,7.337,7.743s-3.961,7.742-7.157,7.742H0V14.81
        c1.733,0,2.116-0.405,2.116-1.485V2.341C2.116,1.26,1.733,0.855,0,0.855V0.09z M4.411,13.189c0,1.305,0.338,1.621,2.341,1.621
        c4.457,0,5.267-2.746,5.267-6.955c0-5.424-1.755-7-5.267-7c-2.003,0-2.341,0.315-2.341,1.62V13.189z"/>
    <path class="letter" d="M15.3,15.575V14.81c1.823,0,2.295-1.013,2.791-2.386L22.637,0h0.811l4.929,12.671
        c0.675,1.733,1.193,2.138,2.499,2.138v0.765h-6.257V14.81c1.688,0,1.778-0.18,1.778-0.833c0-0.473-0.653-2.273-1.26-3.579h-5.312
        c-0.383,1.261-1.036,2.611-1.036,3.241c0,0.855,0.45,1.17,2.386,1.17v0.765H15.3z M24.775,9.453l-2.386-5.919l-2.25,5.919H24.775z"
        />
    <path class="letter" d="M37.622,0.09v0.766c-1.778,0-2.161,0.405-2.161,1.485v10.983c0,1.08,0.383,1.485,2.161,1.485v0.765h-6.617
        V14.81c1.778,0,2.161-0.405,2.161-1.485V2.341c0-1.081-0.383-1.485-2.161-1.485V0.09H37.622z"/>
    <path class="letter" d="M50.246,15.575H38.452V14.81c1.643,0,2.025-0.405,2.025-1.485V2.341c0-1.081-0.383-1.485-1.98-1.485V0.09
        h6.437v0.766c-1.778,0-2.161,0.405-2.161,1.485v10.983c0,1.08,0.495,1.485,1.643,1.485c1.936,0,4.276-0.675,5.267-5.019h0.698
        L50.246,15.575z"/>
    <path class="letter" d="M49.005,0.09h6.392v0.766c-1.351,0-1.891,0.225-1.891,0.765c0,0.765,2.633,5.244,3.016,6.257
        c0.427-0.945,3.106-5.131,3.106-6.279c0-0.473-0.495-0.743-1.913-0.743V0.09h5.154v0.766c-1.621,0-1.913,0.562-2.746,2.138
        L56.95,9.003v4.321c0,1.08,0.383,1.485,2.431,1.485v0.765h-7.067V14.81c1.958,0,2.341-0.405,2.341-1.485V9.003l-3.443-6.775
        c-0.608-1.193-1.036-1.373-2.206-1.373V0.09z"/>
    <path class="letter" d="M70.921,2.341c0-1.081-0.383-1.485-2.071-1.485V0.09h7.27c4.276,0,5.671,1.981,5.671,3.826
        c0,1.981-2.025,3.399-4.411,3.399V7.36c3.331,0.112,5.176,1.598,5.176,3.983c0,1.44-1.328,4.231-5.131,4.231h-8.575V14.81
        c1.688,0,2.071-0.405,2.071-1.485V2.341z M75.445,7.067c3.016,0,3.736-1.216,3.736-2.971c0-2.341-1.17-3.241-3.916-3.241
        c-1.846,0-2.048,0.495-2.048,1.125v5.087H75.445z M73.217,7.833v5.424c0,1.17,0.427,1.553,2.318,1.553
        c3.421,0,4.412-1.238,4.412-3.466c0-2.115-0.945-3.511-3.151-3.511H73.217z"/>
    <path class="letter" d="M97.925,12.334c0,1.845-0.608,3.376-2.678,3.376c-1.688,0-2.543-1.486-2.543-3.556
        c0-3.601-1.08-4.096-3.466-4.096h-0.878v5.267c0,1.08,0.383,1.485,2.228,1.485v0.765h-6.617V14.81c1.71,0,2.093-0.405,2.093-1.485
        V2.341c0-1.081-0.383-1.485-2.093-1.485V0.09h8.125c3.713,0,4.861,2.341,4.861,3.872c0,2.835-2.746,3.938-5.379,3.938v0.045
        c4.344,0.698,2.971,6.189,4.884,6.189c0.607,0,0.833-1.058,0.833-1.8H97.925z M88.359,7.247c0.653,0.022,1.553,0.045,2.588,0.045
        c2.025,0,3.579-0.652,3.579-3.016c0-2.048-0.968-3.421-3.624-3.421c-1.936,0-2.543,0.382-2.543,1.305V7.247z"/>
    <path class="letter" d="M105.212,0.855c-1.778,0-2.161,0.405-2.161,1.485v9.025c0,2.409,1.193,3.714,3.668,3.714
        c3.286,0,4.524-1.936,4.524-4.457V3.016c0-1.215-0.225-2.161-2.408-2.161V0.09h5.424v0.766c-1.98,0-2.206,0.945-2.206,2.161v7.787
        c0,3.241-2.363,5.042-5.604,5.042c-3.466,0-5.694-1.396-5.694-4.546V2.341c0-1.081-0.382-1.485-2.161-1.485V0.09h6.617V0.855z"/>
    <path class="letter" d="M121.592,0.09v0.766c-1.778,0-2.161,0.405-2.161,1.485v10.983c0,1.08,0.383,1.485,2.161,1.485v0.765h-6.617
        V14.81c1.778,0,2.161-0.405,2.161-1.485V2.341c0-1.081-0.383-1.485-2.161-1.485V0.09H121.592z"/>
    <path class="letter" d="M126.587,0.09l8.103,11.591h0.045v-9.34c0-1.081-0.383-1.485-2.228-1.485V0.09h5.131v0.766
        c-1.576,0-1.958,0.405-1.958,1.485V15.71h-0.878l-8.845-12.514h-0.045v10.128c0,1.08,0.383,1.485,2.363,1.485v0.765h-5.537V14.81
        c1.846,0,2.228-0.405,2.228-1.485V1.778c-0.72-0.833-1.125-0.923-2.273-0.923V0.09H126.587z"/>
</svg>
